<?xml version="1.0" ?><!DOCTYPE svg  PUBLIC '-//W3C//DTD SVG 1.1//EN'  'http://www.w3.org/Graphics/SVG/1.1/DTD/svg11.dtd'><svg enable-background="new 0 0 512 512" height="512px" id="Calque_1" version="1.1" viewBox="0 0 512 512" width="512px" xml:space="preserve" xmlns="http://www.w3.org/2000/svg" xmlns:xlink="http://www.w3.org/1999/xlink"><g><g><g><g id="XMLID_1_"><g><polygon fill="#FFC035" points="402.19,182.73 466.81,270.44 338.76,270.44      "/><polygon fill="#C98B0E" points="402.19,182.73 338.76,270.44 256,182.73      "/><polygon fill="#FFC035" points="256,182.73 338.76,270.44 173.24,270.44      "/><polygon fill="#C98B0E" points="256,182.73 173.24,270.44 109.81,182.73      "/><polygon fill="#FFC035" points="109.81,182.73 173.24,270.44 45.2,270.44      "/><polygon fill="#C98B0E" points="256,479.87 45.2,270.44 173.24,270.44      "/><polygon fill="#FFC035" points="338.76,270.44 256,479.87 173.24,270.44      "/><polygon fill="#C98B0E" points="466.81,270.44 256,479.87 338.76,270.44      "/></g><g><polyline fill="none" points="256,479.87 45.2,270.44 109.81,182.73 256,182.73      "/><polyline fill="none" points="256,479.87 466.81,270.44 402.19,182.73 256,182.73      "/><polyline fill="none" points="45.2,270.44 173.24,270.44 338.76,270.44 466.81,270.44      "/><line fill="none" x1="256" x2="173.24" y1="479.87" y2="270.44"/><line fill="none" x1="256" x2="338.76" y1="479.87" y2="270.44"/><line fill="none" x1="173.24" x2="109.81" y1="270.44" y2="182.73"/><line fill="none" x1="173.24" x2="256" y1="270.44" y2="182.73"/><line fill="none" x1="256" x2="338.76" y1="182.73" y2="270.44"/><line fill="none" x1="338.76" x2="402.19" y1="270.44" y2="182.73"/><g><g><path d="M255.36,92.77c-2.209,0-4-1.791-4-4V32.13c0-2.209,1.791-4,4-4c2.209,0,4,1.791,4,4v56.64         C259.359,90.979,257.569,92.77,255.36,92.77z" fill="#FFC035"/></g></g><g><g><path d="M201.579,103.221c-1.701,0-3.277-1.093-3.815-2.801l-16.74-53.22         c-0.663-2.107,0.508-4.353,2.616-5.016c2.107-0.663,4.353,0.508,5.016,2.616l16.74,53.22         c0.663,2.107-0.508,4.353-2.616,5.016C202.381,103.162,201.977,103.221,201.579,103.221z" fill="#FFC035"/></g></g><g><g><path d="M154.144,134.32c-1.238,0-2.459-0.573-3.242-1.652l-31.46-43.39c-1.297-1.789-0.898-4.29,0.89-5.586         c1.788-1.297,4.29-0.898,5.586,0.89l31.46,43.39c1.297,1.789,0.898,4.29-0.89,5.586         C155.779,134.072,154.958,134.32,154.144,134.32z" fill="#FFC035"/></g></g><g><g><path d="M307.861,103.221c-0.397,0-0.802-0.06-1.201-0.185c-2.107-0.663-3.278-2.909-2.615-5.016         l16.739-53.22c0.663-2.107,2.908-3.279,5.016-2.616s3.278,2.909,2.615,5.016l-16.739,53.22         C311.139,102.128,309.562,103.221,307.861,103.221z" fill="#FFC035"/></g></g><g><g><path d="M355.297,134.32c-0.814,0-1.636-0.248-2.346-0.763c-1.788-1.297-2.187-3.798-0.89-5.586l31.47-43.39         c1.299-1.789,3.798-2.186,5.587-0.889c1.788,1.297,2.187,3.798,0.89,5.586l-31.47,43.39         C357.755,133.747,356.534,134.32,355.297,134.32z" fill="#FFC035"/></g></g></g></g></g></g><linearGradient gradientUnits="userSpaceOnUse" id="SVGID_1_" x1="256.005" x2="256.005" y1="270.44" y2="479.87"><stop offset="0" style="stop-color:#000000"/><stop offset="1" style="stop-color:#FFFFFF;stop-opacity:0"/></linearGradient><polygon fill="url(#SVGID_1_)" opacity="0.2" points="466.81,270.44 256,479.87 45.2,270.44  "/></g></svg>